# xmcd CD database file generated by OrangeCD 5.0
#
# Track frame offsets:
#	150
#	22710
#	42977
#	63085
#	89030
#	107177
#	127602
#	153625
#	178175
#	203350
#	238255
#
# Disc length: 3694 seconds
#
# Revision: 2
# Processed by: cddbd v1.4PL0 Copyright (c) Steve Scherf et al.
# Submitted via: OrangeCD 5.0
#
DISCID=880e6c0b
DTITLE=HIM - Love Metal
DYEAR=1900
DGENRE=Blues
TTITLE0=Burried Alive By Love
TTITLE1=The Funeral Of Hearts
TTITLE2=Beyond Redemption
TTITLE3=Sweet Pandemonium
TTITLE4=Soul On Fire
TTITLE5=The Sacrament
TTITLE6=This Fortress Of Tears
TTITLE7=Circle Of Fear
TTITLE8=Endless Dark
TTITLE9=The Path
TTITLE10=Love's Requiem
EXTD=
EXTT0=
EXTT1=
EXTT2=
EXTT3=
EXTT4=
EXTT5=
EXTT6=
EXTT7=
EXTT8=
EXTT9=
EXTT10=
PLAYORDER=
